# xmcd
# Copyright (C) 1995-1998 Ti Kan
#
# Track frame offsets:
#       150
#       16841
#       32243
#       46851
#       62617
#       82403
#       98248
#       115150
#       133459
#       150424
#       166700
#       182742
#
# Disc length: 2658 seconds
#
# Revision: 0
# Processed by: cddbd v1.5.1PL0 Copyright (c) Steve Scherf et al.
# Submitted via: CD-Transfer v1.0
#
DISCID=970a600c
DTITLE=Preluders - Girls In The House
DYEAR=2003
DGENRE=
TTITLE0=Girls In The House
TTITLE1=Everyday Girl
TTITLE2=Bal Prive
TTITLE3=Catch Me
TTITLE4=Losing My Religion
TTITLE5=Bye Bye For The Better
TTITLE6=We Love To Entertain You
TTITLE7=Riding On A Lovetrain
TTITLE8=Sundown
TTITLE9=I Tattoo You
TTITLE10=You're Blocking My Sun
TTITLE11=Born To Love You Forever
EXTD=
EXTT0=
EXTT1=
EXTT2=
EXTT3=
EXTT4=
EXTT5=
EXTT6=
EXTT7=
EXTT8=
EXTT9=
EXTT10=
EXTT11=
PLAYORDER=
